<?xml version="1.0" encoding="UTF-8"?>
<svg xmlns="http://www.w3.org/2000/svg" xmlns:xlink="http://www.w3.org/1999/xlink" width="208pt" height="208pt" viewBox="0 0 208 208" version="1.1">
<g id="surface12712644">
<path style=" stroke:none;fill-rule:nonzero;fill:rgb(100%,100%,100%);fill-opacity:1;" d="M 92 -0.25 C 76.34375 -0.25 63.75 12.75 63.75 28.5 L 63.75 32 L 32 32 C 27.59375 32 24 35.59375 24 40 L 24 48 L 16 48 L 16 64 L 32 64 L 32 184 C 32 197.15625 42.84375 208 56 208 L 152 208 C 165.15625 208 176 197.15625 176 184 L 176 64 L 192 64 L 192 48 L 184 48 L 184 40 C 184 35.59375 180.40625 32 176 32 L 144.25 32 L 144.25 28.5 C 144.25 12.75 131.65625 -0.25 116 -0.25 Z M 92 16.25 L 116 16.25 C 122.4375 16.25 127.75 21.5 127.75 28.5 L 127.75 32 L 80.25 32 L 80.25 28.5 C 80.25 21.5 85.5625 16.25 92 16.25 Z M 48 64 L 89 64 C 90 64.09375 90.96875 64.25 92 64.25 L 116 64.25 C 117.03125 64.25 118 64.09375 119 64 L 160 64 L 160 184 C 160 188.5 156.5 192 152 192 L 56 192 C 51.5 192 48 188.5 48 184 Z M 64 80 L 64 176 L 80 176 L 80 80 Z M 96 80 L 96 176 L 112 176 L 112 80 Z M 128 80 L 128 176 L 144 176 L 144 80 Z M 128 80 "/>
</g>
</svg>
